# xmcd CD database file
#
# Track frame offsets:
#	183
#	21255
#	39885
#	59128
#	77733
#	102410
#	121335
#	141493
#	164093
#
# Disc length: 2409 seconds
#
# Revision: 9
# Processed by: cddbd v1.5.2PL0 Copyright (c) Steve Scherf et al.
# Submitted via: CDex 2.21
#
DISCID=80096709
DTITLE=Count Basie - Count Basie - Kansas City 7 - Impulse
DYEAR=1962
DGENRE=Jazz
TTITLE0=Oh, Lady Be Good
TTITLE1=Secrets
TTITLE2=I Want A Little Girl
TTITLE3=Shoe Shine Boy
TTITLE4=Count's Place
TTITLE5=Senator Whitehead
TTITLE6=Tally-Ho, Mr. Basie!
TTITLE7=What'cha Talkin'?
TTITLE8=Trey of Hearts
EXTD=DISC: 1\nUPC: 011105020220\nLABEL: Impulse!\nENSORECORD: 50834\n YEAR: 1962
EXTT0=
EXTT1=
EXTT2=
EXTT3=
EXTT4=
EXTT5=
EXTT6=
EXTT7=
EXTT8=
PLAYORDER=
